<svg xmlns="http://www.w3.org/2000/svg" width="1400" height="980" viewBox="0 0 1400 980">
  <rect width="100%" height="100%" fill="#ffffff"/>
  <text x="700" y="54" text-anchor="middle" font-family="Segoe UI, Arial, sans-serif" font-size="29" font-weight="700" fill="#15263d">Figure 3. Scalability Behavior of the RAASA Linear Controller</text>
  <text x="700" y="84" text-anchor="middle" font-family="Segoe UI, Arial, sans-serif" font-size="16" font-weight="500" fill="#54657c">Repeated-run means at 3 and 10 containers; single-run supporting evidence at 20 containers</text>

  <rect x="90" y="110" width="1180" height="230" fill="#f8fbff" stroke="#e0e7ef" stroke-width="1" rx="14" ry="14"/>
  <text x="110" y="132" font-family="Segoe UI, Arial, sans-serif" font-size="21" font-weight="700" fill="#15263d">Precision</text>
  <line x1="150" y1="330" x2="1230" y2="330" stroke="#2f445c" stroke-width="2.2"/>
  <line x1="150" y1="150" x2="150" y2="330" stroke="#2f445c" stroke-width="2.2"/>
  <line x1="150" y1="330" x2="1230" y2="330" stroke="#dde5ee" stroke-width="1.3"/>
  <line x1="150" y1="285" x2="1230" y2="285" stroke="#dde5ee" stroke-width="1.3"/>
  <line x1="150" y1="240" x2="1230" y2="240" stroke="#dde5ee" stroke-width="1.3"/>
  <line x1="150" y1="195" x2="1230" y2="195" stroke="#dde5ee" stroke-width="1.3"/>
  <line x1="150" y1="150" x2="1230" y2="150" stroke="#dde5ee" stroke-width="1.3"/>
  <text x="136" y="335" text-anchor="end" font-family="Segoe UI, Arial, sans-serif" font-size="13" font-weight="500" fill="#54657c">0.75</text>
  <text x="136" y="290" text-anchor="end" font-family="Segoe UI, Arial, sans-serif" font-size="13" font-weight="500" fill="#54657c">0.81</text>
  <text x="136" y="245" text-anchor="end" font-family="Segoe UI, Arial, sans-serif" font-size="13" font-weight="500" fill="#54657c">0.88</text>
  <text x="136" y="200" text-anchor="end" font-family="Segoe UI, Arial, sans-serif" font-size="13" font-weight="500" fill="#54657c">0.94</text>
  <text x="136" y="155" text-anchor="end" font-family="Segoe UI, Arial, sans-serif" font-size="13" font-weight="500" fill="#54657c">1.00</text>
  <polyline points="260,243.6 690,186 1120,243.6" fill="none" stroke="#2f6db0" stroke-width="4"/>
  <circle cx="260" cy="243.6" r="9" fill="#2f6db0" stroke="#ffffff" stroke-width="2"/>
  <text x="260" y="227.6" text-anchor="middle" font-family="Segoe UI, Arial, sans-serif" font-size="14" font-weight="700" fill="#2f6db0">0.87</text>
  <circle cx="690" cy="186" r="9" fill="#2f6db0" stroke="#ffffff" stroke-width="2"/>
  <text x="690" y="170" text-anchor="middle" font-family="Segoe UI, Arial, sans-serif" font-size="14" font-weight="700" fill="#2f6db0">0.95</text>
  <polygon points="1120,232.6 1131,243.6 1120,254.6 1109,243.6" fill="#ffffff" stroke="#2f6db0" stroke-width="3"/>
  <text x="1120" y="227.6" text-anchor="middle" font-family="Segoe UI, Arial, sans-serif" font-size="14" font-weight="700" fill="#2f6db0">0.87</text>
  <rect x="990" y="116" width="180" height="34" fill="#eef5fd" stroke="#2f6db0" stroke-width="1" rx="10" ry="10"/>
  <text x="1080" y="139" text-anchor="middle" font-family="Segoe UI, Arial, sans-serif" font-size="14" font-weight="700" fill="#2f6db0">precision improves at 10 containers</text>

  <rect x="90" y="380" width="1180" height="230" fill="#fbfdff" stroke="#e0e7ef" stroke-width="1" rx="14" ry="14"/>
  <text x="110" y="402" font-family="Segoe UI, Arial, sans-serif" font-size="21" font-weight="700" fill="#15263d">Recall</text>
  <line x1="150" y1="600" x2="1230" y2="600" stroke="#2f445c" stroke-width="2.2"/>
  <line x1="150" y1="420" x2="150" y2="600" stroke="#2f445c" stroke-width="2.2"/>
  <line x1="150" y1="600" x2="1230" y2="600" stroke="#dde5ee" stroke-width="1.3"/>
  <line x1="150" y1="555" x2="1230" y2="555" stroke="#dde5ee" stroke-width="1.3"/>
  <line x1="150" y1="510" x2="1230" y2="510" stroke="#dde5ee" stroke-width="1.3"/>
  <line x1="150" y1="465" x2="1230" y2="465" stroke="#dde5ee" stroke-width="1.3"/>
  <line x1="150" y1="420" x2="1230" y2="420" stroke="#dde5ee" stroke-width="1.3"/>
  <text x="136" y="605" text-anchor="end" font-family="Segoe UI, Arial, sans-serif" font-size="13" font-weight="500" fill="#54657c">0.90</text>
  <text x="136" y="560" text-anchor="end" font-family="Segoe UI, Arial, sans-serif" font-size="13" font-weight="500" fill="#54657c">0.93</text>
  <text x="136" y="515" text-anchor="end" font-family="Segoe UI, Arial, sans-serif" font-size="13" font-weight="500" fill="#54657c">0.95</text>
  <text x="136" y="470" text-anchor="end" font-family="Segoe UI, Arial, sans-serif" font-size="13" font-weight="500" fill="#54657c">0.98</text>
  <text x="136" y="425" text-anchor="end" font-family="Segoe UI, Arial, sans-serif" font-size="13" font-weight="500" fill="#54657c">1.00</text>
  <polyline points="260,420 690,420 1120,420" fill="none" stroke="#2f6db0" stroke-width="4"/>
  <circle cx="260" cy="420" r="9" fill="#2f6db0" stroke="#ffffff" stroke-width="2"/>
  <text x="260" y="404" text-anchor="middle" font-family="Segoe UI, Arial, sans-serif" font-size="14" font-weight="700" fill="#2f6db0">1.00</text>
  <circle cx="690" cy="420" r="9" fill="#2f6db0" stroke="#ffffff" stroke-width="2"/>
  <text x="690" y="404" text-anchor="middle" font-family="Segoe UI, Arial, sans-serif" font-size="14" font-weight="700" fill="#2f6db0">1.00</text>
  <polygon points="1120,409 1131,420 1120,431 1109,420" fill="#ffffff" stroke="#2f6db0" stroke-width="3"/>
  <text x="1120" y="404" text-anchor="middle" font-family="Segoe UI, Arial, sans-serif" font-size="14" font-weight="700" fill="#2f6db0">1.00</text>
  <rect x="990" y="386" width="180" height="34" fill="#eef5fd" stroke="#2f6db0" stroke-width="1" rx="10" ry="10"/>
  <text x="1080" y="409" text-anchor="middle" font-family="Segoe UI, Arial, sans-serif" font-size="14" font-weight="700" fill="#2f6db0">recall remains at 1.00</text>

  <rect x="90" y="650" width="1180" height="230" fill="#f8fbff" stroke="#e0e7ef" stroke-width="1" rx="14" ry="14"/>
  <text x="110" y="672" font-family="Segoe UI, Arial, sans-serif" font-size="21" font-weight="700" fill="#15263d">False Positive Rate</text>
  <line x1="150" y1="870" x2="1230" y2="870" stroke="#2f445c" stroke-width="2.2"/>
  <line x1="150" y1="690" x2="150" y2="870" stroke="#2f445c" stroke-width="2.2"/>
  <line x1="150" y1="870" x2="1230" y2="870" stroke="#dde5ee" stroke-width="1.3"/>
  <line x1="150" y1="825" x2="1230" y2="825" stroke="#dde5ee" stroke-width="1.3"/>
  <line x1="150" y1="780" x2="1230" y2="780" stroke="#dde5ee" stroke-width="1.3"/>
  <line x1="150" y1="735" x2="1230" y2="735" stroke="#dde5ee" stroke-width="1.3"/>
  <line x1="150" y1="690" x2="1230" y2="690" stroke="#dde5ee" stroke-width="1.3"/>
  <text x="136" y="875" text-anchor="end" font-family="Segoe UI, Arial, sans-serif" font-size="13" font-weight="500" fill="#54657c">0.00</text>
  <text x="136" y="830" text-anchor="end" font-family="Segoe UI, Arial, sans-serif" font-size="13" font-weight="500" fill="#54657c">0.04</text>
  <text x="136" y="785" text-anchor="end" font-family="Segoe UI, Arial, sans-serif" font-size="13" font-weight="500" fill="#54657c">0.08</text>
  <text x="136" y="740" text-anchor="end" font-family="Segoe UI, Arial, sans-serif" font-size="13" font-weight="500" fill="#54657c">0.11</text>
  <text x="136" y="695" text-anchor="end" font-family="Segoe UI, Arial, sans-serif" font-size="13" font-weight="500" fill="#54657c">0.15</text>
  <polyline points="260,738 690,822 1120,750" fill="none" stroke="#2f6db0" stroke-width="4"/>
  <circle cx="260" cy="738" r="9" fill="#2f6db0" stroke="#ffffff" stroke-width="2"/>
  <text x="260" y="722" text-anchor="middle" font-family="Segoe UI, Arial, sans-serif" font-size="14" font-weight="700" fill="#2f6db0">0.11</text>
  <circle cx="690" cy="822" r="9" fill="#2f6db0" stroke="#ffffff" stroke-width="2"/>
  <text x="690" y="806" text-anchor="middle" font-family="Segoe UI, Arial, sans-serif" font-size="14" font-weight="700" fill="#2f6db0">0.04</text>
  <polygon points="1120,739 1131,750 1120,761 1109,750" fill="#ffffff" stroke="#2f6db0" stroke-width="3"/>
  <text x="1120" y="734" text-anchor="middle" font-family="Segoe UI, Arial, sans-serif" font-size="14" font-weight="700" fill="#2f6db0">0.10</text>
  <rect x="920" y="656" width="250" height="34" fill="#fff7ec" stroke="#d9a441" stroke-width="1" rx="10" ry="10"/>
  <text x="1045" y="679" text-anchor="middle" font-family="Segoe UI, Arial, sans-serif" font-size="14" font-weight="700" fill="#d9a441">20-container point is supportive (n=1)</text>

  <text x="260" y="915" text-anchor="middle" font-family="Segoe UI, Arial, sans-serif" font-size="17" font-weight="600" fill="#15263d">3 containers</text>
  <text x="690" y="915" text-anchor="middle" font-family="Segoe UI, Arial, sans-serif" font-size="17" font-weight="600" fill="#15263d">10 containers</text>
  <text x="1120" y="915" text-anchor="middle" font-family="Segoe UI, Arial, sans-serif" font-size="17" font-weight="600" fill="#15263d">20 containers</text>
  <text x="700" y="948" text-anchor="middle" font-family="Segoe UI, Arial, sans-serif" font-size="15" font-weight="600" fill="#54657c">solid circles = repeated-run means   |   hollow diamond = single-run supporting evidence</text>
</svg>
